<?xml version="1.0" encoding="UTF-8" standalone="no"?>
<!-- Created with Inkscape (http://www.inkscape.org/) -->

<svg
   width="210mm"
   height="297mm"
   viewBox="0 0 210 297"
   version="1.1"
   id="svg1"
   xmlns="http://www.w3.org/2000/svg"
   xmlns:svg="http://www.w3.org/2000/svg">
  <defs
     id="defs1">
    <clipPath
       clipPathUnits="userSpaceOnUse"
       id="clipPath353">
      <path
         id="path354"
         style="fill:#ff0000;fill-opacity:1;fill-rule:nonzero;stroke:none;stroke-width:0.264583"
         d="m 66.241951,170.36893 v 12.84934 H 80.32533 v -12.84934 z m 13.351124,1.42575 c 0.165677,-0.006 0.217633,0.16873 0.04961,0.2713 0.0779,0.01 0.140203,0.0487 0.176734,0.10749 0.02495,0.0179 0.03634,0.0392 0.02687,0.0661 0.02869,0.11329 -0.01617,0.26459 -0.180866,0.40876 -0.01418,0.0122 -0.0062,0.005 -0.02532,0.0222 -0.02265,0.0198 -0.04556,0.0391 -0.06666,0.0605 -0.03624,0.0384 -0.07341,0.0757 -0.112138,0.11162 -0.04205,0.0369 -0.08712,0.0702 -0.131773,0.10387 0.08633,0.0241 0.112318,0.10838 0.06098,0.18708 0.01617,0.0199 0.03294,0.0391 0.04754,0.0605 0.01405,0.0204 0.02656,0.0432 0.03979,0.0641 0.08103,0.14537 0.11851,0.3079 0.150379,0.46974 0.0186,0.10124 0.02704,0.20398 0.03514,0.30643 0.0064,0.0811 -0.07576,0.0897 -0.08216,0.006 -0.0078,-0.0993 -0.01617,-0.19903 -0.03411,-0.29714 -0.02982,-0.15189 -0.06405,-0.30486 -0.139009,-0.44184 -0.01201,-0.0191 -0.02342,-0.0387 -0.03617,-0.0573 -0.01199,-0.0175 -0.02614,-0.0335 -0.03928,-0.0501 -0.02289,0.0172 -0.05028,0.033 -0.0832,0.0465 -0.05934,0.0243 -0.119946,0.0455 -0.179316,0.0698 -0.01786,0.007 -0.03548,0.0146 -0.05323,0.0228 0.0052,0.0384 0.0021,0.0801 0.0088,0.11782 -0.0117,0.0164 -0.02259,0.0334 -0.03462,0.0496 0.0024,0.0243 0.0056,0.0485 0.01035,0.0718 -0.05468,0.0456 -0.10685,0.0943 -0.156581,0.14521 0.0024,0.0199 -0.0205,0.0506 -0.02479,0.0734 -1.51e-4,5.3e-4 -1.85e-4,0.001 -5.29e-4,0.002 0.0081,0.002 0.01627,0.005 0.02429,0.007 0.02193,0.007 0.0011,0.046 -0.0021,0.0687 -0.0078,0.0547 -0.03766,0.10466 -0.04496,0.15916 -0.04167,0.13834 -0.08323,0.27681 -0.125574,0.41496 -0.0084,0.0275 -0.0711,0.23319 -0.08578,0.26716 -0.0019,0.004 -0.0047,0.008 -0.0067,0.0124 0.07338,-0.0115 0.115787,0.0277 0.162783,0.22169 0.0089,0.0367 -0.04749,0.0588 -0.0739,0.0858 -0.01847,0.0189 -0.148021,0.12941 -0.162779,0.14211 -0.0028,0.002 -0.01466,0.0123 -0.01963,0.0165 0.04999,0.0337 0.08837,0.088 0.11162,0.18811 0.01138,0.049 -0.04467,0.0919 -0.0801,0.12764 -0.02548,0.0256 -0.06293,0.037 -0.09663,0.0501 -0.0447,0.0174 -0.08983,0.0282 -0.135911,0.0372 0.01035,0.0195 0.01971,0.0399 0.02739,0.0605 0.148889,-0.005 0.297894,-0.0111 0.446484,-0.017 0.242994,-0.0114 0.48618,-0.0234 0.729155,-0.0351 0.231243,-0.0111 0.242157,0.22246 0.01085,0.23357 -0.243446,0.0117 -0.486722,0.0237 -0.730187,0.0351 -0.26534,0.0111 -0.53137,0.0203 -0.797366,0.0243 0.006,0.002 0.01095,0.005 0.01344,0.0114 0.0079,0.002 0.01587,0.003 0.02376,0.005 0.0118,0.003 0.03754,-0.003 0.03514,0.009 -0.0079,0.0391 -0.01561,0.0793 -0.02532,0.11886 0.01937,0.0824 0.02638,0.12858 0.02016,0.15038 0.08983,0.0164 0.201911,0.0389 0.131775,0.22427 -0.0032,0.008 -0.0078,0.0153 -0.01344,0.0212 0.03915,0.0105 0.0777,0.0219 0.113171,0.0331 0.04557,0.0143 0.08984,0.0316 0.134876,0.0475 0.04049,0.0535 0.127339,0.0934 0.121439,0.1602 -0.01683,0.19176 -0.189286,0.15454 -0.293521,0.13694 -0.0088,-0.002 -0.01802,-0.003 -0.02687,-0.005 2.62e-4,0.005 5.29e-4,0.01 0,0.015 -0.014,0.17187 -0.1817,0.15136 -0.274921,0.13436 -0.05806,-0.0106 -0.114847,-0.0258 -0.172082,-0.0403 0.0098,0.0105 0.01961,0.021 0.02946,0.0315 0.0011,10e-4 0.130638,0.13919 0.141076,0.15089 0.01431,0.016 0.03194,0.0298 0.04134,0.0491 0.01651,0.034 0.06323,0.0832 0.03462,0.10801 -0.178329,0.15435 -0.24022,0.12897 -0.356049,0.0672 -0.0044,0.0274 -0.01593,0.0627 -0.03204,0.10387 l 0.0078,0.006 c 0.01503,0.0109 0.03008,0.0213 0.04444,0.0331 0.01106,0.009 0.03902,0.0163 0.03152,0.0284 -0.05206,0.0846 -0.126709,0.15305 -0.190169,0.22945 -0.03347,-0.0124 -0.0675,-0.0237 -0.10077,-0.0367 -0.01537,-0.006 -0.03365,-0.0146 -0.05013,-0.0212 -0.01177,0.0606 -0.04931,0.11463 -0.09095,0.1633 -7.94e-4,0.001 -0.0019,0.002 -0.0026,0.004 0.04099,0.0162 0.08124,0.0318 0.126608,0.0501 0.05511,0.0222 0.109845,0.0452 0.164849,0.0677 0.07319,0.0319 0.175014,0.0733 0.248047,0.11214 0.01826,-0.0387 0.07342,-0.0778 0.03721,0.0145 0.02342,0.007 0.04606,0.0159 0.04703,0.0367 0.0045,0.0936 -0.02668,0.18825 -0.06718,0.27285 -0.0067,0.014 -0.08505,-0.0115 -0.09922,-0.0155 -0.01598,-0.005 -0.03213,-0.0105 -0.04806,-0.0155 -0.03022,-0.0104 -0.10606,-0.0375 -0.132807,-0.0475 -0.02032,-0.007 -0.04067,-0.0148 -0.06098,-0.0222 0.03189,0.0291 0.06087,0.0605 0.07855,0.0992 0.02664,0.0583 0.04205,0.12034 0.05478,0.18346 0.153419,0.0871 0.316735,0.21208 0.255799,0.37878 -0.214802,0.58765 -0.477509,0.43768 -0.75551,0.31471 -0.04729,-0.021 -0.09438,-0.042 -0.141594,-0.063 0.0083,0.0318 0.01651,0.0656 0.02429,0.10232 0.01852,0.0875 -0.04476,0.16179 -0.12454,0.21962 0.02891,0.0892 0.04758,0.18286 0.077,0.27182 -0.0045,0.007 -0.0085,0.0142 -0.01291,0.0212 7.94e-4,7.9e-4 0.0013,0.001 0.0021,0.002 0.03292,0.0465 0.07079,0.0898 0.0987,0.13953 0.0019,0.003 0.0028,0.007 0.0047,0.0109 0.02315,0.005 0.03986,0.007 0.06925,0.0134 0.03127,0.007 0.06236,0.0142 0.09353,0.0212 0.07695,0.0173 0.135406,0.0463 0.17725,0.0811 0.01535,0.002 0.03093,0.004 0.04651,0.006 0.03185,-0.005 0.05478,-0.004 0.06046,0.009 0.06621,0.0124 0.122748,0.0346 0.141076,0.092 0.04108,0.12856 0.03698,0.20953 0.0078,0.25942 0.01236,0.006 0.02458,0.0126 0.03617,0.0202 0.03921,0.0253 0.117017,0.0487 0.103867,0.0935 -0.03913,0.13319 -0.155458,0.23061 -0.233058,0.34572 -0.258651,-0.0166 -0.255749,-0.0111 -0.526584,-0.0532 -0.04019,-0.006 -0.07342,-0.0118 -0.108003,-0.0176 -0.07261,0.0716 -0.161817,0.12643 -0.255799,0.16433 -0.03462,0.014 -0.07107,0.0238 -0.106453,0.0357 -0.03908,0.008 -0.07781,0.0198 -0.117305,0.0258 -0.04983,0.008 -0.09974,0.0125 -0.149863,0.0139 0.221679,0.16833 0.226253,0.4212 0.05116,0.56792 -0.02867,0.1349 -0.180261,0.23504 -0.413412,0.18604 -0.07941,0.0607 -0.204832,0.094 -0.373104,0.0703 -0.03575,-0.005 -0.01709,-0.002 -0.05529,-0.008 -0.07825,-0.012 -0.156644,-0.0238 -0.234095,-0.0403 -0.07014,-0.0156 -0.139997,-0.0321 -0.209807,-0.0491 -0.07303,-0.0179 -0.146413,-0.0355 -0.219623,-0.0527 -0.07835,-0.0185 -0.156403,-0.0367 -0.234611,-0.0558 -0.09101,-0.0234 -0.181676,-0.0487 -0.272336,-0.0734 -0.09553,-0.0264 -0.190963,-0.0539 -0.286803,-0.0791 -0.05519,-0.0158 -0.110275,-0.0314 -0.165364,-0.0475 -0.177615,-0.0519 -0.281221,-0.14436 -0.321945,-0.24081 -0.423315,-0.15435 -0.35468,-0.58218 0.05426,-0.56896 0.04476,0.001 0.09355,0.008 0.146244,0.0212 0.133662,0.0329 0.267229,0.0644 0.401526,0.0946 0.0241,0.005 0.04823,0.0102 0.07235,0.0155 -0.0063,-0.051 -0.0075,-0.10147 0.0098,-0.14883 0.01556,-0.0425 0.03416,-0.0784 0.05426,-0.11007 -0.07426,-0.0356 -0.147978,-0.0723 -0.220144,-0.11214 h -5.29e-4 c -0.484269,-0.26783 -0.298974,-0.74873 0.171048,-0.56276 0.0019,-0.0158 0.0048,-0.0314 0.0098,-0.047 0.03291,-0.10287 0.130244,-0.17023 0.22841,-0.22841 0.0016,-0.005 0.0026,-0.01 0.0047,-0.015 0.0415,-0.1077 0.108906,-0.16091 0.18655,-0.18345 -0.0027,-0.009 -0.0053,-0.0172 -0.0072,-0.0264 -0.0155,-0.0736 -0.01283,-0.14909 -0.0093,-0.2248 -0.03246,-0.0159 -0.07715,-0.0279 -0.07441,-0.0599 0.02096,-0.24706 0.01365,-0.5252 0.157615,-0.72709 0.06324,-0.0887 0.213113,0.0139 0.324527,0.0315 0.01021,-0.0101 0.02148,-0.0196 0.03255,-0.0289 -0.03779,-0.0379 -0.06916,-0.0793 -0.08165,-0.1297 -0.03715,-0.15004 0.02342,-0.30839 0.03514,-0.46251 0.0683,-0.0389 0.133302,-0.0849 0.201022,-0.12505 -0.0267,-0.0963 -0.02662,-0.16721 0.04082,-0.17415 0.01008,-0.001 0.02148,-7e-5 0.03462,0.002 0.0036,-0.0114 0.0058,-0.0205 0.01498,-0.0496 0.0059,-0.0188 0.01156,-0.0375 0.01757,-0.0563 0.005,-0.0157 0.0087,-0.0318 0.01497,-0.047 0.0099,-0.0238 0.0078,-0.0696 0.03359,-0.0698 0.03593,-1e-4 0.07077,0.008 0.105418,0.0181 0.0013,-0.006 0.0024,-0.0128 0.0036,-0.0191 0.01556,-0.0814 0.03081,-0.16292 0.04547,-0.24443 0.0026,-0.0147 0.0047,-0.0292 0.0072,-0.0439 -0.02233,-0.0251 -0.04156,-0.0528 -0.06253,-0.0791 0.03414,-0.0757 0.04725,-0.16495 0.101801,-0.22738 5.29e-4,-0.005 0.0011,-0.0138 0.0016,-0.0155 0.0053,-0.0202 0.01381,-0.0392 0.02066,-0.0589 0.01386,0.004 0.02829,0.008 0.04238,0.0124 0.02723,-0.028 0.05725,-0.0524 0.09043,-0.0713 -0.08272,-0.0549 -0.186052,-0.12543 -0.187586,-0.14262 -0.0088,-0.0963 0.04095,-0.19294 0.09147,-0.27544 0.01288,-0.0215 0.04912,0.002 0.07338,0.006 0.0011,1.7e-4 0.0021,2.3e-4 0.0031,5.3e-4 -0.03888,-0.0468 -0.05093,-0.11244 -0.01707,-0.23203 0.01238,-0.0436 0.07993,-0.0448 0.124024,-0.0553 0.02842,-0.007 0.05828,0.002 0.08733,0.005 0.0045,5.3e-4 0.0168,0.003 0.02273,0.004 0.0026,-0.008 0.0035,-0.0101 0.0062,-0.0186 0.0046,-0.015 0.03046,0.005 0.04547,0.008 0.0378,0.008 0.07545,0.0161 0.113172,0.0243 -0.0013,-0.003 -0.0024,-0.007 -0.0031,-0.0103 -0.0016,-0.008 -0.0021,-0.0156 -0.0021,-0.0233 -0.0065,-0.002 -0.01315,-0.003 -0.01963,-0.005 -0.05226,-0.015 -0.104862,-0.0307 -0.154514,-0.0532 v 0.002 c -0.120494,-0.0545 -0.160409,-0.13489 -0.142108,-0.19637 -0.0049,-0.002 -0.01005,-0.003 -0.01498,-0.005 -0.177657,-0.0671 -0.16424,-0.22935 -0.03411,-0.24081 0.0087,-8e-4 0.0177,-5.3e-4 0.02739,0 0.02217,0.002 0.04678,0.007 0.0739,0.0171 0.05008,0.0187 0.100716,0.0359 0.150897,0.0543 -0.05926,-0.0727 -0.107596,-0.13655 0.02585,-0.11628 0.0127,0.002 0.02553,0.003 0.03824,0.005 -0.01566,-0.0194 -0.0241,-0.0392 -0.01498,-0.0615 0.02936,-0.0717 0.0744,-0.10571 0.125058,-0.11886 -0.0013,-0.0374 -0.0031,-0.0812 -0.0067,-0.14108 -7.94e-4,-0.0146 0.02769,-0.0116 0.04186,-0.0165 0.02246,-0.008 0.04549,-0.0136 0.06821,-0.0207 0.0204,-0.006 0.04059,-0.012 0.06098,-0.0181 0.0011,-0.0193 0.0073,-0.0313 0.01757,-0.0393 -0.01699,-0.0178 -0.03321,-0.036 -0.05064,-0.0538 -0.0011,-0.032 -0.0067,-0.0642 -0.0052,-0.0961 -0.0041,-0.008 -0.0083,-0.0159 -0.01138,-0.0243 -0.01106,-0.0298 -0.01196,-0.0626 -0.0181,-0.094 0.0072,-0.0305 0.01029,-0.0624 0.0217,-0.0915 -0.174916,-0.0565 -0.224885,-0.2856 0.0181,-0.54054 0.06998,-0.0735 0.154688,-0.13022 0.236677,-0.18913 0.143222,-0.1039 0.284094,-0.21052 0.424781,-0.31781 0.0113,-0.009 0.02281,-0.017 0.03411,-0.0258 -0.278968,-0.089 -0.272494,-0.4542 0.160714,-0.56999 0.02199,-0.006 0.04389,-0.0115 0.06614,-0.0165 0.01291,-0.003 0.02585,-0.005 0.03876,-0.008 0.01215,-0.0516 0.05394,-0.10722 0.132808,-0.15089 0.034,-0.0188 0.07021,-0.0327 0.106452,-0.0465 0.06339,-0.0241 0.126513,-0.0484 0.190169,-0.0718 0.05481,-0.0206 0.110607,-0.0397 0.165881,-0.0589 0.05171,-0.0192 0.103743,-0.0355 0.156064,-0.0532 0.0097,-0.003 0.01977,-0.007 0.02946,-0.0103 0.01915,-0.007 0.04352,-0.0147 0.06253,-0.0217 0.03086,-0.0112 0.06119,-0.024 0.09147,-0.0367 0.05803,-0.0252 0.115393,-0.052 0.172082,-0.0801 0.05967,-0.0304 0.119113,-0.0612 0.178285,-0.0925 0.04452,-0.024 0.08871,-0.0484 0.133842,-0.0713 0.02013,-0.0102 0.03455,-0.0169 0.05012,-0.0243 0.0059,-0.003 0.01164,-0.006 0.01757,-0.009 0.04425,-0.0227 0.08869,-0.0449 0.134358,-0.0646 0.05025,-0.0218 0.100537,-0.044 0.150895,-0.0656 0.04804,-0.0201 0.09663,-0.0396 0.145211,-0.0584 0.04257,-0.0157 0.08514,-0.03 0.128675,-0.0429 0.04564,-0.0144 0.0913,-0.029 0.13694,-0.0434 2.65e-4,-1.3e-4 7.94e-4,1.2e-4 0.0011,0 0.0087,-0.004 0.01717,-0.008 0.02585,-0.0114 0.04158,-0.0178 0.07934,-0.0262 0.112655,-0.0274 z m -0.601514,1.78129 c 5.29e-4,-5.3e-4 -5.1e-5,-2.7e-4 -0.0021,5.3e-4 -0.0024,10e-4 -0.0066,0.004 -0.01344,0.008 0.0059,-0.003 0.01463,-0.007 0.0155,-0.008 z m -3.209108,2.98483 c 0.0092,0.004 0.0181,0.009 0.02687,0.0145 -0.0131,-0.0102 -0.03637,-0.0188 -0.02687,-0.0145 z m -0.40876,0.79375 c 1.19e-4,-0.004 3.2e-5,-10e-4 -0.0011,0.008 2.62e-4,1e-4 7.93e-4,-1e-4 0.0011,0 6.1e-5,-0.002 -2.4e-5,-0.007 0,-0.008 z m 2.118736,0.34158 c -1.38e-4,2.6e-4 -2.23e-4,7.9e-4 -5.29e-4,10e-4 -5.3e-4,0.001 0.0041,0.002 0.0031,0.001 -5.29e-4,-5.3e-4 -0.0021,-0.002 -0.0026,-0.002 z m -0.03514,3.12694 c 0.0011,0.016 0.05932,0.0276 0.04444,0.0207 -0.0149,-0.007 -0.02964,-0.0137 -0.04444,-0.0207 z" />
    </clipPath>
    <clipPath
       clipPathUnits="userSpaceOnUse"
       id="clipPath399">
      <path
         id="path400"
         style="fill:#ff0000;fill-opacity:1;fill-rule:nonzero;stroke:none;stroke-width:0.264583"
         d="M 51.072336,101.62584 V 208.01263 H 148.86533 V 101.62584 Z m 28.568798,70.07221 c 0.137144,-0.005 0.12116,0.0601 0.07338,0.13952 0.0351,0.0366 0.04306,0.0911 0.01394,0.14418 0.02442,0.0174 0.04852,0.0351 0.06925,0.0568 0.0145,0.0151 0.01775,0.0184 0.031,0.0346 0.02066,0.0253 0.03852,0.0521 0.0553,0.0801 0.01908,0.0348 0.03761,0.0707 0.04651,0.10955 l -5.29e-4,0.002 c 0.0258,0.11349 -0.02585,0.0991 -0.0925,0.0599 -0.0039,0.0996 -0.04326,0.21126 -0.172082,0.32402 -0.01418,0.0122 -0.0062,0.005 -0.02532,0.0222 -0.02265,0.0198 -0.04556,0.0391 -0.06666,0.0605 -0.03624,0.0385 -0.07341,0.0757 -0.112138,0.11162 -0.04208,0.0369 -0.08756,0.0697 -0.132292,0.10335 0.08905,0.0246 0.113925,0.11268 0.05685,0.19327 0.0168,0.0195 0.03756,0.0356 0.05219,0.0568 0.01405,0.0204 0.02656,0.0432 0.03979,0.0641 0.08103,0.14537 0.11851,0.30791 0.150379,0.46974 0.0186,0.10124 0.02704,0.20399 0.03514,0.30644 0.0064,0.0811 -0.07576,0.0817 -0.08216,0.006 -0.0078,-0.0993 -0.01617,-0.19904 -0.03411,-0.29714 -0.02982,-0.15186 -0.06405,-0.30486 -0.139009,-0.44184 -0.01201,-0.0191 -0.02342,-0.0392 -0.03617,-0.0579 -0.01228,-0.0179 -0.0301,-0.0313 -0.04393,-0.0481 -0.02193,0.0158 -0.04795,0.0304 -0.07855,0.0429 -0.05934,0.0243 -0.119946,0.0455 -0.179316,0.0698 -0.01786,0.007 -0.03547,0.0146 -0.05323,0.0228 0.0052,0.0384 0.0021,0.0801 0.0088,0.11782 -0.01169,0.0164 -0.02259,0.0333 -0.03462,0.0496 0.0024,0.0243 0.0056,0.0485 0.01035,0.0718 -0.05468,0.0456 -0.106857,0.0943 -0.15658,0.14521 0.0024,0.0199 -0.02058,0.0505 -0.02479,0.0734 -1.51e-4,5.3e-4 -5.3e-5,0.001 -5.29e-4,0.002 0.0081,0.002 0.01627,0.005 0.02429,0.007 0.02193,0.007 0.0011,0.046 -0.0021,0.0687 -0.0078,0.0547 -0.03766,0.10467 -0.04496,0.15917 -0.04167,0.13834 -0.08323,0.27683 -0.125574,0.41496 -0.0084,0.0275 -0.0711,0.23317 -0.08578,0.26717 -0.0019,0.004 -0.0043,0.008 -0.0062,0.0119 0.07305,-0.0113 0.115379,0.0282 0.162263,0.22169 0.0089,0.0367 -0.04749,0.0588 -0.0739,0.0858 -0.01847,0.0189 -0.148021,0.12941 -0.162779,0.14211 -0.0028,0.002 -0.01466,0.0123 -0.01963,0.0165 0.04999,0.0337 0.08837,0.088 0.111619,0.18811 0.01138,0.049 -0.04467,0.0919 -0.0801,0.12764 -0.02548,0.0256 -0.06291,0.037 -0.09663,0.0501 -0.0447,0.0174 -0.08983,0.0282 -0.135911,0.0372 0.0097,0.0182 0.01839,0.0372 0.02585,0.0563 0.149405,-0.005 0.298929,-0.006 0.448035,-0.0124 0.242993,-0.0114 0.486179,-0.0234 0.729154,-0.0351 0.231243,-0.0111 0.242197,0.22247 0.01085,0.23358 -0.243446,0.0117 -0.486722,0.0237 -0.730186,0.0351 -0.267711,0.0113 -0.536226,0.0178 -0.804603,0.0217 0.0095,0.002 0.01725,0.005 0.02066,0.0129 0.0079,0.002 0.01587,0.003 0.02376,0.005 0.0118,0.003 0.03754,-0.003 0.03514,0.009 -0.0079,0.0391 -0.01561,0.0793 -0.02532,0.11885 0.01937,0.0824 0.02638,0.12858 0.02016,0.15038 0.08983,0.0164 0.201911,0.0389 0.131775,0.22428 -0.0032,0.008 -0.0078,0.0154 -0.01344,0.0212 0.03915,0.0105 0.0777,0.0219 0.11317,0.0331 0.04557,0.0143 0.08984,0.0315 0.134876,0.0475 0.04049,0.0535 0.127339,0.0934 0.121439,0.1602 -0.01683,0.19176 -0.189286,0.15454 -0.293521,0.13694 -0.0088,-0.002 -0.01802,-0.003 -0.02687,-0.005 2.65e-4,0.005 5.29e-4,0.01 0,0.015 -0.014,0.17187 -0.1817,0.15136 -0.274921,0.13436 -0.05806,-0.0106 -0.114847,-0.0258 -0.172082,-0.0403 0.0098,0.0105 0.01961,0.021 0.02946,0.0315 0.0011,0.001 0.130638,0.1392 0.141076,0.1509 0.01431,0.016 0.03194,0.0298 0.04134,0.0491 0.01651,0.034 0.06323,0.0832 0.03462,0.108 -0.178329,0.15435 -0.240217,0.12877 -0.356049,0.0672 -0.0044,0.0274 -0.01593,0.0627 -0.03204,0.10387 l 0.0078,0.006 c 0.01503,0.0109 0.03008,0.0213 0.04444,0.0331 0.01106,0.009 0.03902,0.0169 0.03152,0.0289 -0.05206,0.0846 -0.126709,0.15304 -0.190169,0.22944 -0.03347,-0.0124 -0.0675,-0.0242 -0.100769,-0.0372 -0.01537,-0.006 -0.03365,-0.0139 -0.05013,-0.0207 -0.01177,0.0606 -0.04931,0.11462 -0.09095,0.1633 -7.94e-4,10e-4 -0.0019,0.002 -0.0026,0.004 0.04099,0.0163 0.08125,0.0318 0.126608,0.0501 0.05511,0.0222 0.109845,0.0452 0.164849,0.0677 0.07319,0.0319 0.175014,0.0733 0.248047,0.11214 0.01826,-0.0387 0.07342,-0.0778 0.03721,0.0145 0.02341,0.007 0.04606,0.0159 0.04703,0.0367 0.0045,0.0936 -0.02668,0.18825 -0.06718,0.27285 -0.0067,0.014 -0.08505,-0.0115 -0.09922,-0.0155 -0.01598,-0.005 -0.03213,-0.0105 -0.04806,-0.0155 -0.03022,-0.0104 -0.106061,-0.037 -0.132808,-0.047 -0.02053,-0.007 -0.04098,-0.015 -0.0615,-0.0227 0.03221,0.0293 0.06127,0.0612 0.07906,0.10025 0.02664,0.0583 0.04205,0.12032 0.05478,0.18345 0.153419,0.087 0.316735,0.21209 0.255799,0.37879 -0.214802,0.58764 -0.477509,0.43768 -0.75551,0.31471 -0.04729,-0.021 -0.09438,-0.0419 -0.141594,-0.0631 0.0083,0.0318 0.01651,0.0656 0.02429,0.10232 0.01852,0.0875 -0.04476,0.1618 -0.12454,0.21963 0.02891,0.0892 0.04758,0.18287 0.077,0.27182 -0.0046,0.007 -0.0084,0.0146 -0.01291,0.0217 7.94e-4,7.9e-4 0.0013,0.001 0.0021,0.002 0.03292,0.0465 0.07079,0.0898 0.0987,0.13952 0.0019,0.003 0.0019,0.007 0.0036,0.0103 0.02344,0.005 0.04043,0.008 0.07028,0.0139 0.03127,0.007 0.06235,0.0142 0.09354,0.0212 0.07695,0.0173 0.135406,0.0463 0.17725,0.0811 0.01535,0.002 0.03092,0.004 0.04651,0.006 0.03185,-0.005 0.05478,-0.004 0.06046,0.009 0.06621,0.0124 0.122748,0.0346 0.141076,0.092 0.04108,0.12858 0.03658,0.20954 0.0078,0.25943 0.01236,0.006 0.02458,0.0126 0.03617,0.0201 0.03921,0.0253 0.117017,0.0487 0.103868,0.0935 -0.03913,0.13319 -0.155459,0.2306 -0.233059,0.34571 -0.258651,-0.0166 -0.255749,-0.0111 -0.526584,-0.0532 -0.04306,-0.007 -0.07904,-0.0125 -0.115755,-0.0186 -0.07189,0.0696 -0.155816,0.12814 -0.248047,0.16536 -0.03462,0.014 -0.07107,0.0238 -0.106452,0.0357 -0.03908,0.008 -0.07781,0.0197 -0.117306,0.0258 -0.05924,0.01 -0.118682,-0.007 -0.178284,-0.007 0.236995,0.15936 0.239082,0.39689 0.08423,0.55242 -0.0076,0.14917 -0.164266,0.25935 -0.40876,0.21394 -0.07869,0.0655 -0.207282,0.10293 -0.382407,0.078 -0.03575,-0.005 -0.01709,-0.002 -0.05529,-0.008 -0.07825,-0.012 -0.156644,-0.0238 -0.234095,-0.0403 -0.07014,-0.0156 -0.139997,-0.0321 -0.209807,-0.0491 -0.07303,-0.0179 -0.146412,-0.0355 -0.219623,-0.0527 -0.07835,-0.0185 -0.156403,-0.0367 -0.234611,-0.0558 -0.09101,-0.0234 -0.181676,-0.0487 -0.272336,-0.0734 -0.09552,-0.0264 -0.190963,-0.0539 -0.286803,-0.0791 -0.05519,-0.0158 -0.110275,-0.0314 -0.165364,-0.0475 -0.190842,-0.0557 -0.29595,-0.15847 -0.329697,-0.26252 -0.391155,-0.16279 -0.337389,-0.56016 0.06201,-0.54726 0.04476,10e-4 0.09355,0.008 0.146243,0.0212 0.133662,0.0329 0.267229,0.0644 0.401526,0.0946 0.02756,0.006 0.05509,0.012 0.08268,0.0181 -0.0065,-0.0514 -0.01802,-0.10365 -5.29e-4,-0.15141 0.01654,-0.0452 0.03621,-0.0833 0.05788,-0.11626 -0.07436,-0.0357 -0.151498,-0.0655 -0.223761,-0.10542 h -5.29e-4 c -0.48065,-0.26582 -0.29224,-0.72302 0.170016,-0.5483 0.0013,-0.0208 0.0043,-0.0415 0.01085,-0.062 0.03291,-0.10287 0.130246,-0.17022 0.228409,-0.22841 0.0016,-0.005 0.0026,-0.01 0.0047,-0.015 0.0415,-0.10771 0.108905,-0.16091 0.18655,-0.18345 -0.0027,-0.009 -0.0053,-0.0172 -0.0072,-0.0263 -0.01551,-0.0736 -0.01283,-0.14906 -0.0093,-0.22481 -0.03246,-0.0159 -0.07716,-0.0279 -0.07441,-0.0599 0.02096,-0.24706 0.01365,-0.5252 0.157615,-0.72709 0.06324,-0.0887 0.213114,0.0139 0.324527,0.0315 0.01021,-0.0101 0.02148,-0.0196 0.03255,-0.0289 -0.03779,-0.0379 -0.06916,-0.0793 -0.08165,-0.12969 -0.03715,-0.15004 0.02342,-0.30839 0.03514,-0.46251 0.0683,-0.0389 0.133303,-0.0849 0.201023,-0.12505 -0.0267,-0.0963 -0.02662,-0.16721 0.04082,-0.17415 0.01005,-10e-4 0.02151,-8e-4 0.03462,0.001 0.0036,-0.0114 0.0058,-0.0205 0.01498,-0.0496 0.0059,-0.0188 0.01156,-0.0375 0.01757,-0.0563 0.005,-0.0157 0.0087,-0.0318 0.01498,-0.047 0.0099,-0.0238 0.0078,-0.0695 0.03359,-0.0698 0.03593,-9e-5 0.07077,0.008 0.105418,0.0181 0.0013,-0.006 0.0024,-0.0128 0.0036,-0.0191 0.01556,-0.0814 0.03081,-0.16293 0.04547,-0.24443 0.0026,-0.0147 0.0047,-0.0287 0.0072,-0.0434 -0.02233,-0.025 -0.04156,-0.0533 -0.06253,-0.0796 0.03414,-0.0757 0.04725,-0.16494 0.101801,-0.22737 5.29e-4,-0.005 0.0011,-0.0138 0.0016,-0.0155 0.0053,-0.0202 0.01378,-0.0392 0.02066,-0.0589 0.01386,0.004 0.02829,0.008 0.04238,0.0124 0.02723,-0.028 0.05725,-0.0524 0.09043,-0.0713 -0.08272,-0.0549 -0.186052,-0.12544 -0.187587,-0.14263 -0.0088,-0.0963 0.04095,-0.19294 0.09147,-0.27544 0.01288,-0.0215 0.04912,0.002 0.07338,0.006 0.0011,1.3e-4 0.0021,8e-5 0.0031,5.3e-4 -0.03888,-0.0468 -0.05074,-0.11246 -0.01707,-0.23203 0.01238,-0.0436 0.07993,-0.0448 0.124023,-0.0553 0.02842,-0.007 0.05828,0.002 0.08733,0.005 0.0045,5.2e-4 0.0168,0.003 0.02273,0.004 0.0026,-0.008 0.0035,-0.0101 0.0062,-0.0186 0.0046,-0.015 0.03046,0.005 0.04547,0.008 0.0378,0.008 0.07545,0.0161 0.113173,0.0243 -0.0013,-0.003 -0.0024,-0.007 -0.0031,-0.0103 -0.0016,-0.008 -0.0021,-0.0153 -0.0021,-0.0232 -0.0065,-0.002 -0.01315,-0.003 -0.01963,-0.005 -0.05226,-0.015 -0.104863,-0.0307 -0.154514,-0.0532 v 0.002 c -0.120492,-0.0545 -0.160409,-0.1349 -0.142108,-0.19638 -0.0049,-0.002 -0.01019,-0.003 -0.01498,-0.005 -0.177665,-0.0671 -0.1642,-0.22935 -0.03411,-0.24081 0.0087,-8e-4 0.0177,-5.3e-4 0.02739,0 0.02217,0.002 0.04678,0.005 0.0739,0.0155 0.04767,0.0177 0.09745,0.029 0.145211,0.0465 -0.05626,-0.0695 -0.09729,-0.12859 0.03152,-0.10903 0.0127,0.002 0.02553,0.003 0.03824,0.005 -0.01566,-0.0194 -0.0241,-0.0392 -0.01498,-0.0615 0.02936,-0.0717 0.0744,-0.10569 0.125058,-0.11885 -0.0013,-0.0374 -0.0031,-0.0812 -0.0067,-0.14108 -7.94e-4,-0.0146 0.02769,-0.0126 0.04186,-0.0176 0.02246,-0.008 0.04549,-0.0129 0.06821,-0.0201 0.0204,-0.006 0.04059,-0.012 0.06098,-0.0181 0.0013,-0.0206 0.0081,-0.033 0.01963,-0.0408 -0.01712,-0.0179 -0.03515,-0.0348 -0.05271,-0.0522 -0.0011,-0.032 -0.0067,-0.0642 -0.0052,-0.0961 -0.0041,-0.008 -0.0083,-0.0159 -0.01138,-0.0243 -0.01106,-0.0298 -0.01191,-0.0625 -0.0181,-0.0941 0.0076,-0.0321 0.01024,-0.0658 0.02326,-0.0961 0.0024,-0.006 0.0061,-0.0111 0.0093,-0.0165 -0.172037,-0.0585 -0.233471,-0.26561 0.0072,-0.51883 0.06998,-0.0735 0.154689,-0.13024 0.236678,-0.18914 0.143222,-0.1039 0.284094,-0.21052 0.424781,-0.31781 0.0113,-0.009 0.02281,-0.0165 0.03411,-0.0253 -0.278969,-0.089 -0.272494,-0.45422 0.160713,-0.56999 0.02199,-0.006 0.04389,-0.0105 0.06615,-0.0155 0.01291,-0.003 0.02585,-0.005 0.03876,-0.008 0.01185,-0.0519 0.05344,-0.10798 0.132807,-0.15193 0.034,-0.0188 0.0702,-0.0322 0.106453,-0.046 0.06339,-0.0241 0.126513,-0.0479 0.190169,-0.0713 0.05481,-0.0206 0.110607,-0.0392 0.165881,-0.0584 0.05171,-0.0192 0.103743,-0.0361 0.156064,-0.0538 0.0097,-0.003 0.01977,-0.007 0.02946,-0.0109 0.01916,-0.006 0.04352,-0.0147 0.06253,-0.0217 0.03086,-0.0112 0.06119,-0.024 0.09147,-0.0367 0.05803,-0.0252 0.115392,-0.052 0.172082,-0.0801 0.05967,-0.0304 0.119113,-0.0612 0.178284,-0.0925 0.04452,-0.024 0.08871,-0.0484 0.133842,-0.0713 0.01871,-0.01 0.03229,-0.0162 0.04651,-0.0232 0.0069,-0.004 0.01373,-0.007 0.02066,-0.0103 0.04425,-0.0227 0.08869,-0.0454 0.13436,-0.0651 0.05025,-0.0218 0.100534,-0.0436 0.150895,-0.0651 0.04804,-0.0201 0.09663,-0.0391 0.145211,-0.0579 0.02598,-0.01 0.05236,-0.0185 0.07855,-0.0274 -0.03039,-0.044 -0.0062,-0.0906 0.121957,-0.14004 0.007,-0.003 0.01368,-0.005 0.02066,-0.008 0.02901,-0.01 0.05817,-0.0214 0.08837,-0.0274 0.03138,-0.007 0.0626,-0.0125 0.09457,-0.0155 l 5.29e-4,-5.3e-4 c 0.01799,-0.002 0.03429,-0.003 0.04909,-0.004 z m -0.649573,1.87792 c 5.29e-4,-5.3e-4 2.64e-4,-2.7e-4 -0.0021,5.3e-4 -0.0024,10e-4 -0.0066,0.004 -0.01344,0.008 0.0059,-0.003 0.01463,-0.007 0.0155,-0.008 z m -3.209108,2.98483 c 0.0092,0.004 0.0181,0.009 0.02687,0.0145 -0.0131,-0.0102 -0.03637,-0.0188 -0.02687,-0.0145 z m -0.40876,0.79375 c 1.19e-4,-0.004 2.65e-4,-10e-4 -0.0011,0.008 2.62e-4,1e-4 7.93e-4,-1e-4 0.0011,0 6.1e-5,-0.002 -2.4e-5,-0.007 0,-0.008 z m 2.118736,0.34158 c -1.38e-4,2.6e-4 -1.17e-4,7.9e-4 -5.29e-4,10e-4 -5.3e-4,0.001 0.0041,0.002 0.0031,0.001 -5.29e-4,-5.3e-4 -0.0021,-0.002 -0.0026,-0.002 z m -0.03514,3.12694 c 0.0011,0.016 0.05932,0.0276 0.04444,0.0207 -0.0149,-0.007 -0.02964,-0.0137 -0.04444,-0.0207 z m -4.706689,1.7632 c 0.0035,-5.3e-4 0.0076,-2.6e-4 0.01188,0 0.03247,0.003 0.08346,0.0282 0.128675,0.0486 0.01476,-0.0267 0.05496,-0.002 0.09147,0.0139 0.0016,-0.005 0.0016,-0.0123 -0.0016,-0.0227 0.0795,0.0148 0.159366,0.0289 0.238746,0.0444 0.08249,0.0161 0.209185,0.0429 0.336929,0.0692 h 5.29e-4 c 0.277855,0.0214 0.556284,0.0364 0.834575,0.0507 0.256871,0.0118 0.513244,0.029 0.769461,0.0506 0.153379,0.0124 0.306049,0.0341 0.457854,0.0589 0.204779,0.0335 0.323524,0.12894 0.365868,0.23358 0.4688,0.0664 0.484206,0.49562 0.09663,0.56483 -0.0086,0.0246 -0.01535,0.0503 -0.02946,0.0718 -0.02241,0.0343 -0.05494,0.0615 -0.08785,0.0858 -0.0059,0.004 -0.01331,0.006 -0.01963,0.01 -0.01701,0.0322 -0.0359,0.0636 -0.05219,0.0961 -0.05818,0.0579 -0.11012,0.12223 -0.174149,0.17363 -0.123955,0.0994 -0.288817,0.17096 -0.434599,0.22686 -0.152922,0.0586 -0.341466,0.11193 -0.50023,0.15193 -0.07991,0.0201 -0.160501,0.0369 -0.24081,0.0553 -0.28902,0.0613 -0.581956,0.10468 -0.876432,0.12868 -0.178343,0.0144 -0.23113,0.0147 -0.408761,0.0217 -0.06503,0 -0.129791,0.002 -0.19482,0.002 -0.131792,0 -0.245711,-0.003 -0.377238,-0.0103 -0.03034,-0.002 -0.06064,-0.004 -0.09095,-0.006 0.09524,0.012 0.190852,0.0232 0.271817,0.0315 0.11785,0.0121 0.235982,0.021 0.353983,0.0315 0.115388,0.008 0.230783,0.0173 0.346231,0.0243 0.212029,0.0132 0.405178,0.0214 0.617019,0.0274 0.268909,0.007 0.537692,0.007 0.80667,0.006 0.266591,-0.001 0.533408,-0.006 0.799949,-0.0114 0.578675,-0.0111 0.589523,0.57336 0.01085,0.58446 -0.270044,0.006 -0.539676,0.009 -0.809771,0.0114 -0.276047,0 -0.552394,10e-4 -0.828373,-0.007 -0.218517,-0.006 -0.419037,-0.0148 -0.637686,-0.0284 -0.119115,-0.008 -0.238037,-0.0173 -0.357084,-0.0253 -0.12342,-0.0111 -0.24675,-0.0208 -0.370004,-0.0336 -0.323403,-0.0335 -0.646861,-0.0758 -0.96325,-0.15244 -0.08649,-0.021 -0.172519,-0.0439 -0.257347,-0.0708 -0.07537,-0.0239 -0.148505,-0.0545 -0.222726,-0.0817 -0.184378,-0.1039 -0.278045,-0.11878 -0.361736,-0.34882 -0.02278,-0.0626 -0.01241,-0.13526 0.0052,-0.19947 0.03189,-0.11655 0.105878,-0.19391 0.201538,-0.25631 0.03727,-0.0243 0.07968,-0.0404 0.119372,-0.0605 0.04252,-0.0133 0.08385,-0.0292 0.127124,-0.0398 0.146982,-0.0361 0.301472,-0.0443 0.452171,-0.0403 0.08122,0.002 0.230362,0.0157 0.311092,0.0228 0.166404,0.0141 0.332382,0.0282 0.499194,0.0372 0.121253,0.007 0.225216,0.01 0.346747,0.01 0.06003,0 0.120322,-7.9e-4 0.180353,-0.002 0.163418,-0.006 0.210656,-0.006 0.374653,-0.0191 0.269396,-0.0215 0.537054,-0.0611 0.801502,-0.1168 0.07274,-0.0166 0.146191,-0.0321 0.218591,-0.0501 0.118335,-0.0294 0.230931,-0.0605 0.344684,-0.0982 -0.015,-0.002 -0.02995,-0.004 -0.04496,-0.006 -0.07266,-0.007 -0.145262,-0.007 -0.218075,-0.0114 -0.142338,-0.008 -0.284541,-0.0183 -0.425812,-0.0377 -0.06264,-0.008 -0.100622,-0.0141 -0.162783,-0.0243 -0.08551,-0.0139 -0.170357,-0.0321 -0.255796,-0.0465 -0.166981,-0.0317 -0.333002,-0.0673 -0.499711,-0.10026 -0.0066,-0.001 -0.01312,-0.003 -0.01963,-0.004 -0.0063,3e-5 -0.0085,0.004 -0.01498,0.004 -0.08752,0.0598 -0.206971,0.0949 -0.386022,0.0398 -0.04791,-0.0148 -0.09586,-0.0298 -0.143142,-0.0465 -0.05141,-0.0176 -0.102849,-0.0352 -0.155546,-0.0486 -0.09012,-0.0241 -0.181007,-0.0434 -0.272336,-0.0625 -0.110053,-0.0244 -0.219538,-0.0505 -0.329697,-0.0744 -0.05299,-0.0122 -0.106159,-0.0251 -0.159163,-0.0372 -0.105317,-0.024 -0.178057,-0.0642 -0.236162,-0.10904 -0.293552,-0.14435 -0.240167,-0.48277 0.113173,-0.52348 0.04029,-0.0135 0.0711,-0.0363 0.122989,-0.0367 0.0013,-2e-5 0.0033,5.3e-4 0.0047,5.3e-4 0.0553,-0.0797 0.165698,-0.13692 0.327112,-0.13436 0.03186,5.3e-4 0.06604,0.003 0.101801,0.009 0.133837,0.0203 0.26783,0.0374 0.402045,0.0548 0.0029,-0.0173 0.0046,-0.0351 0.0078,-0.0522 0.0021,-0.0116 0.009,-0.0172 0.01963,-0.0186 z m -1.228865,2.10995 c -0.0058,0.002 -0.0117,0.004 -0.01757,0.007 -0.0069,0.006 -0.01606,0.009 -0.02066,0.017 -0.0016,0.002 0.0056,0.006 0.0078,0.004 0.01016,-0.009 0.02077,-0.0182 0.03049,-0.0279 z" />
    </clipPath>
  </defs>
  <g
     id="layer1">
    <ellipse
       style="fill:none;stroke:#000000;stroke-width:3.50466;stroke-dasharray:none;stroke-opacity:1"
       id="path1"
       cx="99.968941"
       cy="154.81915"
       rx="47.144051"
       ry="51.441074"
       clip-path="url(#clipPath399)" />
    <path
       style="fill:none;stroke:#000000;stroke-width:1.26;stroke-dasharray:none;stroke-dashoffset:0;stroke-opacity:1"
       d="m 119.54966,203.17829 6.36101,11.22532 c 0,0 76.14509,120.29801 8.79317,-23.57317"
       id="path10" />
    <path
       style="fill:none;fill-opacity:0;stroke:#000000;stroke-width:1.26;stroke-dasharray:none;stroke-dashoffset:0;stroke-opacity:1"
       d="m 79.23205,171.18613 h 45.369"
       id="path49" />
    <path
       style="fill:none;fill-opacity:0;stroke:#000000;stroke-width:1.26;stroke-dasharray:none;stroke-dashoffset:0;stroke-opacity:1"
       d="m 72.309769,182.50499 59.120021,0.18709"
       id="path50" />
    <path
       style="fill:none;fill-opacity:0;stroke:#000000;stroke-width:1.5756;stroke-dasharray:none;stroke-dashoffset:0;stroke-opacity:1"
       d="m 124.73828,171.35574 c 0.0529,-0.0648 4.06654,11.2705 4.06654,11.2705 0,0 17.85049,-1.36023 -4.06654,-11.2705 z"
       id="path67" />
    <path
       style="fill:none;fill-opacity:0;stroke:#000000;stroke-width:1.63827;stroke-dasharray:none;stroke-dashoffset:0;stroke-opacity:1"
       d="m 78.943678,171.16195 c -0.0576,-0.0644 -4.42517,11.1974 -4.42517,11.1974 0,0 -19.424715,-1.35141 4.42517,-11.1974 z"
       id="path67-5"
       clip-path="url(#clipPath353)" />
    <rect
       style="fill:#225500;fill-opacity:0;stroke:#000000;stroke-width:1.26;stroke-dasharray:none;stroke-dashoffset:0;stroke-opacity:1"
       id="rect69"
       width="10.649479"
       height="0.92604166"
       x="79.077339"
       y="182.59557" />
    <rect
       style="fill:#225500;fill-opacity:0;stroke:#000000;stroke-width:1.26;stroke-dasharray:none;stroke-dashoffset:0;stroke-opacity:1"
       id="rect69-1"
       width="10.649479"
       height="0.92604166"
       x="96.839111"
       y="182.72948" />
    <rect
       style="fill:#225500;fill-opacity:0;stroke:#000000;stroke-width:1.26;stroke-dasharray:none;stroke-dashoffset:0;stroke-opacity:1"
       id="rect69-7"
       width="10.649479"
       height="0.92604166"
       x="114.50005"
       y="182.79561" />
    <ellipse
       style="fill:#000000;fill-opacity:0;stroke:#000000;stroke-width:1.26;stroke-dasharray:none;stroke-dashoffset:0;stroke-opacity:1"
       id="path69"
       cx="78.974808"
       cy="184.30573"
       rx="0.74835467"
       ry="0.56126595" />
    <ellipse
       style="fill:#000000;fill-opacity:0;stroke:#000000;stroke-width:1.26;stroke-dasharray:none;stroke-dashoffset:0;stroke-opacity:1"
       id="path69-2"
       cx="89.938576"
       cy="184.33109"
       rx="0.74835467"
       ry="0.56126595" />
    <ellipse
       style="fill:#000000;fill-opacity:0;stroke:#000000;stroke-width:1.26;stroke-dasharray:none;stroke-dashoffset:0;stroke-opacity:1"
       id="path69-1"
       cx="96.44632"
       cy="184.39252"
       rx="0.74835467"
       ry="0.56126595" />
    <ellipse
       style="fill:#000000;fill-opacity:0;stroke:#000000;stroke-width:1.26;stroke-dasharray:none;stroke-dashoffset:0;stroke-opacity:1"
       id="path69-7"
       cx="108.20584"
       cy="184.43059"
       rx="0.74835467"
       ry="0.56126595" />
    <ellipse
       style="fill:#000000;fill-opacity:0;stroke:#000000;stroke-width:1.26;stroke-dasharray:none;stroke-dashoffset:0;stroke-opacity:1"
       id="path69-9"
       cx="113.99594"
       cy="184.45029"
       rx="0.74835467"
       ry="0.56126595" />
    <ellipse
       style="fill:#000000;fill-opacity:0;stroke:#000000;stroke-width:1.26;stroke-dasharray:none;stroke-dashoffset:0;stroke-opacity:1"
       id="path69-5"
       cx="125.69587"
       cy="184.46405"
       rx="0.74835467"
       ry="0.56126595" />
    <path
       style="fill:#000000;fill-opacity:0;stroke:#000000;stroke-width:1.26;stroke-dasharray:none;stroke-dashoffset:0;stroke-opacity:1"
       d="m 127.05788,176.69206 h 6.36653"
       id="path436" />
    <path
       style="fill:#ff0000;fill-opacity:0;stroke:#f90000;stroke-width:1.26;stroke-dasharray:none;stroke-dashoffset:0;stroke-opacity:1"
       d="m 106.06484,171.41692 3.00964,11.07943"
       id="path437" />
    <path
       style="fill:#ff0000;fill-opacity:0;stroke:#0600f9;stroke-width:1.26;stroke-dasharray:none;stroke-dashoffset:0;stroke-opacity:1"
       d="m 110.89887,171.27445 3.00964,11.07943"
       id="path437-1" />
    <path
       style="fill:#ff0000;fill-opacity:0;stroke:#f90000;stroke-width:1.26;stroke-dasharray:none;stroke-dashoffset:0;stroke-opacity:1"
       d="m 97.304684,171.51321 3.009636,11.07943"
       id="path437-7" />
    <path
       style="fill:#ff0000;fill-opacity:0;stroke:#0600f9;stroke-width:1.26;stroke-dasharray:none;stroke-dashoffset:0;stroke-opacity:1"
       d="m 102.13871,171.37074 3.00964,11.07943"
       id="path437-1-9" />
    <path
       style="fill:#ff0000;fill-opacity:0;stroke:#f90000;stroke-width:1.26;stroke-dasharray:none;stroke-dashoffset:0;stroke-opacity:1"
       d="m 88.43221,171.51046 3.00964,11.07943"
       id="path437-8" />
    <path
       style="fill:#ff0000;fill-opacity:0;stroke:#0600f9;stroke-width:1.26;stroke-dasharray:none;stroke-dashoffset:0;stroke-opacity:1"
       d="m 93.26624,171.36799 3.00964,11.07943"
       id="path437-1-6" />
    <path
       style="fill:#ff0000;fill-opacity:0;stroke:#f90000;stroke-width:1.26;stroke-dasharray:none;stroke-dashoffset:0;stroke-opacity:1"
       d="m 79.518906,171.46369 3.00964,11.07943"
       id="path437-86" />
    <path
       style="fill:#ff0000;fill-opacity:0;stroke:#0600f9;stroke-width:1.26;stroke-dasharray:none;stroke-dashoffset:0;stroke-opacity:1"
       d="m 84.352936,171.32122 3.00964,11.07943"
       id="path437-1-0" />
    <path
       style="fill:#ff0000;fill-opacity:0;stroke:#f90000;stroke-width:1.26;stroke-dasharray:none;stroke-dashoffset:0;stroke-opacity:1"
       d="m 114.46043,171.28761 3.00964,11.07943"
       id="path437-6" />
    <path
       style="fill:#ff0000;fill-opacity:0;stroke:#0600f9;stroke-width:1.26;stroke-dasharray:none;stroke-dashoffset:0;stroke-opacity:1"
       d="m 119.29446,171.14514 3.00964,11.07943"
       id="path437-1-5" />
    <path
       style="fill:#00ffff;fill-opacity:0;stroke:#00c7f9;stroke-width:4.76221;stroke-dasharray:none;stroke-dashoffset:0;stroke-opacity:1"
       d="m 481.0353,664.81295 c -0.87977,-2.20734 -3.9019,-10.8996 -3.81856,-10.98294 0.11816,-0.11815 6.5965,3.11996 10.42177,5.20918 3.03331,1.65668 6.91691,3.94813 8.92723,5.26737 l 1.5026,0.98606 -8.41964,0.003 -8.41964,0.003 z"
       id="path451"
       transform="scale(0.26458333)" />
    <path
       style="fill:#00ffff;fill-opacity:0;stroke:#00c7f9;stroke-width:4.76221;stroke-dasharray:none;stroke-dashoffset:0;stroke-opacity:1"
       d="m 482.7534,662.33808 c -0.46451,-1.17746 -1.20562,-3.46994 -1.14225,-3.53331 0.0845,-0.0845 1.55495,0.64939 4.61315,2.30241 3.45972,1.87006 3.47236,1.71704 -0.14182,1.71704 h -3.1373 z"
       id="path452"
       transform="scale(0.26458333)" />
    <path
       style="fill:#000000;fill-opacity:0;stroke:#000000;stroke-width:4.76221;stroke-dasharray:none;stroke-dashoffset:0;stroke-opacity:1"
       d="m 485.94241,678.59984 -2.93354,-8.26261 10.71171,-0.0884 10.71172,-0.0884 1.11559,1.06066 c 3.07167,2.92042 4.60315,5.96497 3.87598,7.70534 -1.29068,3.08904 -7.73,5.90216 -17.15902,7.49621 -1.44183,0.24375 -2.79417,0.44242 -3.0052,0.44149 -0.34615,-0.002 -0.67079,-0.81032 -3.31724,-8.26431 z"
       id="path454"
       transform="scale(0.26458333)" />
    <path
       style="fill:#000000;fill-opacity:0;stroke:#000000;stroke-width:4.76221;stroke-dasharray:none;stroke-dashoffset:0;stroke-opacity:1"
       d="m 489.4351,680.98619 c -0.63889,-1.77339 -1.55992,-4.35641 -2.04672,-5.74004 l -0.8851,-2.5157 8.43418,-0.0476 8.43418,-0.0476 0.67996,0.61872 c 0.99806,0.90818 2.19156,2.51 2.70376,3.62878 0.42398,0.9261 0.43296,1.00508 0.16143,1.41949 -1.24453,1.8994 -7.41047,4.31124 -13.97498,5.46641 -0.87504,0.15398 -1.76066,0.31638 -1.96803,0.36089 -0.34388,0.0738 -0.47923,-0.2027 -1.53868,-3.14342 z"
       id="path455"
       transform="scale(0.26458333)" />
    <path
       style="fill:#000000;fill-opacity:0;stroke:#000000;stroke-width:4.76221;stroke-dasharray:none;stroke-dashoffset:0;stroke-opacity:1"
       d="m 491.13252,678.34027 c -0.59722,-1.67503 -1.0696,-3.06176 -1.04974,-3.08161 0.0199,-0.0199 2.8191,-0.0542 6.22054,-0.0764 l 6.18443,-0.0402 0.83969,1.03596 c 0.46183,0.56978 0.83969,1.09868 0.83969,1.17534 0,0.1997 -2.51057,1.43048 -4.0356,1.97839 -1.90194,0.68334 -7.14552,2.05402 -7.85772,2.05402 -0.0305,0 -0.54408,-1.37048 -1.14129,-3.0455 z"
       id="path456"
       transform="scale(0.26458333)" />
    <path
       style="fill:#000000;fill-opacity:0;stroke:#000000;stroke-width:4.76221;stroke-dasharray:none;stroke-dashoffset:0;stroke-opacity:1"
       d="m 407.96544,701.35394 c -1.64352,-0.27164 -3.33487,-1.54402 -3.84862,-2.89528 -0.10014,-0.26339 -0.18207,-0.83169 -0.18207,-1.26288 v -0.78399 h -17.14734 -17.14734 l -10e-4,0.48614 c -0.002,0.94119 -0.36936,1.79239 -1.14723,2.65758 -1.07786,1.19883 -2.245,1.69656 -3.97831,1.69656 -1.72098,0 -2.90179,-0.49922 -3.95709,-1.67296 -0.89771,-0.99847 -1.26554,-2.08701 -1.09332,-3.23548 0.21794,-1.45334 1.58566,-2.94357 3.19426,-3.48036 0.3889,-0.12978 0.78267,-0.29928 0.87504,-0.37666 0.0924,-0.0774 -4.86647,-0.14068 -11.01972,-0.14068 h -11.18773 l 1.11226,0.57578 c 3.48569,1.80442 3.43072,5.90958 -0.1015,7.58062 -1.27858,0.60487 -3.03432,0.68768 -4.43822,0.20932 -1.71974,-0.58597 -3.08239,-2.43729 -3.08239,-4.18779 v -0.6424 h -15.62349 -15.62349 l -0.0756,1.04467 c -0.27271,3.77028 -5.56693,5.41005 -8.67015,2.68539 -2.2657,-1.98931 -1.64565,-5.50692 1.21081,-6.86907 0.32897,-0.15688 0.59812,-0.35766 0.59812,-0.44617 0,-0.0947 -3.0005,-0.14616 -7.29203,-0.12501 -4.01063,0.0198 -9.26089,0.0274 -11.66727,0.0169 l -4.37522,-0.019 v -0.50756 c 0,-0.47777 -0.0536,-0.51466 -0.91341,-0.62872 -1.37938,-0.18298 -5.44983,-1.12159 -7.83704,-1.80714 -9.00487,-2.58601 -14.05374,-7.00541 -14.05374,-12.30157 0,-1.55432 0.2402,-2.53136 1.05442,-4.28884 3.48769,-7.52818 16.67734,-16.06005 40.93004,-26.47603 5.49692,-2.3608 6.11532,-2.51985 7.24785,-1.86411 l 0.7071,0.40943 86.00186,0.0884 86.00187,0.0884 3.71231,1.74526 c 23.95996,11.26424 36.07153,19.99226 38.85154,27.99778 1.47508,4.24775 0.0457,8.33422 -3.97474,11.36375 -2.69372,2.02978 -7.40012,4.01409 -12.38197,5.22049 -2.03601,0.49304 -2.07712,0.51277 -2.07712,0.99691 v 0.49391 l -2.78424,3.5e-4 c -1.53133,1.8e-4 -3.89792,0.11865 -5.2591,0.26328 -3.20799,0.34083 -3.8007,0.34108 -3.8007,0.002 0,-0.22947 -0.63668,-0.26317 -4.72878,-0.25035 -4.14518,0.013 -4.60878,0.0413 -3.7565,0.22925 1.69428,0.37367 2.79095,1.1572 3.4385,2.45668 0.86855,1.74295 0.48627,3.50965 -1.05248,4.86412 -0.97683,0.85985 -2.15789,1.27397 -3.63333,1.27397 -2.57627,0 -4.82093,-1.83708 -4.97739,-4.07363 l -0.0551,-0.78779 -17.01264,-0.0451 -17.01263,-0.0451 v 0.6878 c 0,0.96291 -0.82318,2.45263 -1.74288,3.1541 -2.05734,1.5692 -5.18251,1.40653 -7.06725,-0.36785 -2.53633,-2.38782 -1.44024,-5.89099 2.22689,-7.11729 l 1.19155,-0.39846 -11.04854,0.0112 c -6.35719,0.006 -10.59818,0.0713 -9.98789,0.15285 1.38033,0.18432 2.2257,0.55338 3.12516,1.36435 3.38729,3.05401 0.1689,8.07902 -4.66293,7.28042 z m -62.19023,-11.19123 c 2.21997,-0.61812 2.22884,-0.62718 1.88786,-1.92897 l -0.12789,-0.48827 6.6592,0.0463 6.6592,0.0463 0.30409,1.11102 c 0.16724,0.61106 0.34679,1.15374 0.399,1.20595 0.10438,0.10437 4.37991,-0.97265 4.59035,-1.15634 0.072,-0.0628 0.0576,-0.36956 -0.0319,-0.68162 l -0.16272,-0.5674 h 4.99902 4.99902 l 0.39695,1.5026 c 0.3002,1.13642 0.46828,1.49942 0.68968,1.48952 0.16101,-0.007 1.20756,-0.26812 2.32568,-0.57982 2.21098,-0.61637 2.16268,-0.56844 1.86801,-1.85385 l -0.1354,-0.59059 6.60251,0.12855 c 4.52529,0.0881 6.64284,0.19049 6.73072,0.32543 0.0705,0.10828 0.22239,0.61451 0.33749,1.12496 0.1151,0.51044 0.25628,0.93059 0.31373,0.93366 0.0574,0.003 1.12555,-0.25546 2.37356,-0.57452 l 2.26911,-0.58011 -0.0925,-0.57453 -0.0925,-0.57452 h 4.83579 4.83579 l 0.31877,1.23743 c 0.22381,0.86878 0.39928,1.23354 0.58898,1.22435 0.14861,-0.007 1.18503,-0.26872 2.30314,-0.58116 l 2.03293,-0.56808 -0.0389,-0.65627 -0.0389,-0.65627 h 6.6113 6.6113 l 0.28618,0.98445 c 0.32983,1.13457 0.0207,1.10808 3.11981,0.2674 1.63664,-0.44397 1.82948,-0.5381 1.7919,-0.87468 -0.0419,-0.37551 -0.0238,-0.37717 4.09751,-0.37717 h 4.13963 l 0.28265,0.97227 c 0.15545,0.53475 0.37985,0.9734 0.49867,0.97477 0.11883,10e-4 1.19423,-0.25716 2.38979,-0.57452 1.83607,-0.48739 2.16132,-0.62508 2.09367,-0.88639 -0.0752,-0.29058 0.32543,-0.30936 6.60121,-0.30936 h 6.6813 l 0.11607,0.61872 c 0.079,0.42078 0.21248,0.61821 0.41742,0.61712 0.16575,-8.9e-4 1.29572,-0.27859 2.51106,-0.61712 l 2.20971,-0.61551 9.0598,-0.002 c 4.9829,-8.8e-4 9.05981,-0.0324 9.05981,-0.0701 0,-0.1977 -11.65943,-32.7844 -13.03597,-36.43398 -0.55328,-1.46688 -0.75567,-1.81104 -1.19546,-2.03294 -0.43637,-0.22017 -1.77116,-0.28266 -7.59439,-0.35551 l -7.06499,-0.0884 -0.38281,-1.37846 c -0.21056,-0.75815 -0.42831,-1.42395 -0.48391,-1.47954 -0.11064,-0.11065 -4.36571,0.97381 -4.58302,1.16805 -0.0738,0.066 -0.022,0.49313 0.11527,0.94917 l 0.24956,0.82917 h -6.66614 -6.66615 l -0.32093,-1.23744 c -0.17653,-0.68059 -0.41062,-1.23648 -0.52022,-1.23532 -0.1096,10e-4 -1.15386,0.26785 -2.32059,0.59266 l -2.12132,0.59056 0.0519,0.64477 0.0519,0.64477 h -4.14428 -4.14427 l -0.21925,-0.92808 c -0.44072,-1.8655 -0.16525,-1.76362 -2.82436,-1.04455 l -2.32874,0.62972 0.10737,0.67146 0.10737,0.67145 h -6.60824 -6.60824 l -0.22581,-0.83969 c -0.1242,-0.46183 -0.28923,-0.91085 -0.36674,-0.99783 -0.0811,-0.091 -1.11751,0.0954 -2.44178,0.43918 -2.18429,0.56707 -2.29576,0.61763 -2.20034,0.99784 l 0.10053,0.4005 h -4.8524 -4.85239 l -0.22014,-0.98366 c -0.12107,-0.54102 -0.32605,-1.02431 -0.4555,-1.07399 -0.12946,-0.0497 -1.21641,0.17568 -2.41545,0.50078 -2.15061,0.58311 -2.17931,0.59763 -2.12324,1.07399 l 0.0568,0.48288 h -6.62079 -6.6208 l -0.2003,-0.79549 c -0.11017,-0.43753 -0.25883,-0.79801 -0.33035,-0.80109 -0.0715,-0.003 -1.14429,0.25505 -2.38394,0.5736 -1.40113,0.36005 -2.2539,0.66418 -2.2539,0.80384 0,0.17747 -1.04553,0.21479 -4.9791,0.1777 l -4.97911,-0.047 -0.28,-1.05713 c -0.154,-0.58143 -0.31978,-1.05574 -0.36839,-1.05403 -0.0486,0.002 -1.10988,0.27223 -2.35836,0.60115 l -2.26997,0.59803 0.10046,0.50231 0.10046,0.50231 -6.6637,-0.0463 -6.66371,-0.0463 -0.1824,-0.64844 c -0.10032,-0.35665 -0.23976,-0.70569 -0.30986,-0.77565 -0.21838,-0.21793 -4.74975,1.03941 -4.65315,1.29113 0.0668,0.17412 -0.99937,0.22135 -4.99689,0.22135 h -5.08182 l -0.31379,-1.21811 -0.31379,-1.21811 -1.53733,0.42951 c -0.84552,0.23623 -1.91618,0.51985 -2.37923,0.63027 -0.83081,0.19811 -0.84045,0.20849 -0.73162,0.7886 l 0.11028,0.58784 h -6.63117 -6.63117 l -0.21204,-0.88388 c -0.13664,-0.5696 -0.30556,-0.88389 -0.47505,-0.88389 -0.14466,0 -1.21064,0.25685 -2.36885,0.57077 -2.20105,0.59657 -2.21133,0.60469 -1.95032,1.53932 0.11192,0.4008 0.003,0.48788 -1.56442,1.25392 -0.92658,0.45276 -2.0029,0.92531 -2.3918,1.05011 -1.37442,0.44105 -9.7858,4.32427 -14.58408,6.73292 -9.73839,4.8885 -15.68454,8.67502 -19.6876,12.5371 -3.17969,3.06772 -4.20948,5.21737 -3.35848,7.01071 0.71606,1.50898 4.0364,3.57228 7.75489,4.81897 3.01325,1.01025 8.37368,2.19658 12.10921,2.67994 0.92366,0.11951 2.99194,0.58162 4.59619,1.02691 l 2.91682,0.80961 12.29645,0.0558 12.29646,0.0558 0.32565,1.30778 c 0.17912,0.71927 0.38464,1.4032 0.45672,1.51983 0.0979,0.15842 0.68358,0.066 2.31552,-0.36534 1.20145,-0.31758 2.24488,-0.63141 2.31872,-0.69741 0.0738,-0.066 0.022,-0.49313 -0.11528,-0.94917 l -0.24954,-0.82918 h 6.68117 6.68117 l 0.30325,1.23744 c 0.16678,0.68059 0.39411,1.23649 0.50518,1.23533 0.11106,-0.001 1.15652,-0.26812 2.32324,-0.59326 l 2.12132,-0.59115 -0.0449,-0.55579 -0.0449,-0.55579 h 5.02627 5.02626 l 0.28098,0.96655 c 0.15455,0.53161 0.32923,1.20778 0.3882,1.5026 0.13172,0.65862 0.14881,0.65826 2.71466,-0.0562 z m 147.05036,-11.23085 c 0.18015,-0.11418 0.1032,-0.2459 -0.31955,-0.54691 -0.65725,-0.46801 -0.80521,-0.39961 -0.51472,0.23794 0.22067,0.48431 0.43334,0.56307 0.83427,0.30897 z m 3.12007,-0.74259 c 1.06874,-0.29839 1.97693,-0.57629 2.0182,-0.61756 0.0413,-0.0413 -0.97237,-0.075 -2.25252,-0.075 -1.32581,0 -2.32756,0.0711 -2.32756,0.16527 0,0.30762 0.34391,1.07218 0.48175,1.07101 0.0753,-7.1e-4 1.01139,-0.24529 2.08013,-0.54369 z m -2.29672,-1.22292 c 0.0601,-0.0972 -0.0545,-0.17677 -0.25474,-0.17677 -0.20018,0 -0.36398,0.0796 -0.36398,0.17677 0,0.0972 0.11462,0.17678 0.25474,0.17678 0.14009,0 0.30389,-0.0796 0.36398,-0.17678 z m 12.27967,-9.43594 c -0.45308,-0.42631 -9.35545,-6.18184 -11.89046,-7.68739 -5.73115,-3.40371 -15.26071,-8.28615 -16.49647,-8.4519 -0.81342,-0.1091 -2.01235,0.34303 -2.01235,0.75889 0,0.13511 -0.1591,0.54251 -0.35355,0.90532 -0.19446,0.36281 -0.35356,0.86827 -0.35356,1.12324 0,0.66016 3.24546,10.06118 4.41647,12.79302 l 0.34393,0.80237 h 13.30242 c 11.30734,0 13.2636,-0.0365 13.04357,-0.24355 z"
       id="path457"
       transform="scale(0.26458333)" />
    <path
       style="fill:#000000;fill-opacity:0;stroke:#000000;stroke-width:4.76221;stroke-dasharray:none;stroke-dashoffset:0;stroke-opacity:1"
       d="m 284.16854,684.90248 c -1.92851,-0.60079 -5.54484,-1.43254 -7.95495,-1.82963 -6.26121,-1.03159 -10.72056,-2.2236 -13.61181,-3.6385 -1.87343,-0.91681 -3.39262,-1.94343 -3.57353,-2.41489 -0.28957,-0.75459 1.81142,-3.3171 4.69334,-5.72432 2.14422,-1.79103 5.82094,-4.25315 9.48679,-6.35283 4.84869,-2.77718 16.93052,-8.66942 22.11566,-10.78569 0.88526,-0.36131 2.10506,-0.89474 2.71067,-1.18541 0.70164,-0.33675 1.12723,-0.45708 1.17312,-0.33168 0.17143,0.46844 8.73717,32.11105 8.73717,32.27587 0,0.23656 -23.01578,0.22406 -23.77646,-0.0129 z"
       id="path458"
       transform="scale(0.26458333)" />
    <path
       style="fill:#000000;fill-opacity:0;stroke:#000000;stroke-width:4.76221;stroke-dasharray:none;stroke-dashoffset:0;stroke-opacity:1"
       d="m 308.93369,669.49627 c -2.32443,-8.5796 -4.36722,-16.09646 -4.53953,-16.70413 l -0.31329,-1.10485 6.66084,0.002 6.66085,0.002 3.67472,13.56548 c 2.0211,7.46101 4.0585,14.97748 4.52756,16.70326 l 0.85283,3.13779 -6.64888,-10e-4 -6.64888,-10e-4 z"
       id="path459"
       transform="scale(0.26458333)" />
    <path
       style="fill:#000000;fill-opacity:0;stroke:#000000;stroke-width:4.76221;stroke-dasharray:none;stroke-dashoffset:0;stroke-opacity:1"
       d="m 331.46516,684.61194 c -1.96077,-7.04347 -8.88265,-32.77161 -8.83067,-32.82295 0.0392,-0.0388 2.29417,-0.0936 5.01092,-0.12181 l 4.93955,-0.0513 4.4646,16.43175 c 2.45553,9.03746 4.51003,16.61074 4.56556,16.8295 l 0.10097,0.39775 h -5.0332 -5.03319 z"
       id="path460"
       transform="scale(0.26458333)" />
    <path
       style="fill:#000000;fill-opacity:0;stroke:#000000;stroke-width:4.76221;stroke-dasharray:none;stroke-dashoffset:0;stroke-opacity:1"
       d="m 353.16186,685.31913 -6.31356,-0.0487 -0.19915,-0.74907 c -0.62295,-2.34317 -8.53438,-31.46401 -8.7281,-32.12694 l -0.23247,-0.79549 6.64957,0.0577 c 3.65727,0.0317 6.66284,0.0715 6.67905,0.0884 0.0644,0.067 9.07693,33.35249 9.07693,33.52342 0,0.10076 -0.13921,0.16435 -0.30936,0.14132 -0.17015,-0.023 -3.15046,-0.0638 -6.62291,-0.0906 z"
       id="path461"
       transform="scale(0.26458333)" />
    <path
       style="fill:#000000;fill-opacity:0;stroke:#000000;stroke-width:4.76221;stroke-dasharray:none;stroke-dashoffset:0;stroke-opacity:1"
       d="m 365.13755,684.78872 c -0.0668,-0.26737 -2.10392,-7.78217 -4.52697,-16.69954 -2.42305,-8.91737 -4.4054,-16.2757 -4.40522,-16.35185 1.7e-4,-0.0761 2.22854,-0.13843 4.95194,-0.13843 4.24885,0 4.96271,0.0376 5.02978,0.26516 0.043,0.14584 2.07219,7.6235 4.50933,16.61701 2.43715,8.99352 4.46678,16.45128 4.5103,16.57282 0.0621,0.17344 -0.99922,0.22097 -4.93431,0.22097 h -5.01342 z"
       id="path462"
       transform="scale(0.26458333)" />
    <path
       style="fill:#000000;fill-opacity:0;stroke:#000000;stroke-width:4.76221;stroke-dasharray:none;stroke-dashoffset:0;stroke-opacity:1"
       d="m 386.71547,685.37656 -6.34751,-0.19009 -4.53649,-16.7054 -4.53649,-16.7054 6.54195,-0.0464 c 3.59807,-0.0255 6.59904,0.0143 6.66883,0.0884 0.12437,0.13209 9.17594,33.32191 9.17594,33.64584 0,0.0907 -0.13921,0.15099 -0.30936,0.13401 -0.17015,-0.017 -3.16574,-0.11643 -6.65687,-0.22097 z"
       id="path463"
       transform="scale(0.26458333)" />
    <path
       style="fill:#000000;fill-opacity:0;stroke:#000000;stroke-width:4.76221;stroke-dasharray:none;stroke-dashoffset:0;stroke-opacity:1"
       d="m 398.80822,685.35513 c 0,-0.0531 -2.02851,-7.56065 -4.5078,-16.68349 -2.4793,-9.12285 -4.50781,-16.6764 -4.50781,-16.78567 0,-0.14214 1.35446,-0.19868 4.75926,-0.19868 h 4.75926 l 0.18031,0.57452 c 0.0992,0.31599 2.14261,7.80995 4.54097,16.65324 2.39836,8.84329 4.40019,16.18174 4.44851,16.30765 0.0706,0.18399 -0.8703,0.22893 -4.79242,0.22893 -2.68415,0 -4.88028,-0.0434 -4.88028,-0.0965 z"
       id="path464"
       transform="scale(0.26458333)" />
    <path
       style="fill:#000000;fill-opacity:0;stroke:#000000;stroke-width:4.76221;stroke-dasharray:none;stroke-dashoffset:0;stroke-opacity:1"
       d="m 413.50296,684.87711 c -0.10006,-0.31599 -2.14309,-7.8089 -4.54007,-16.65091 -2.39699,-8.84202 -4.39846,-16.18142 -4.44772,-16.3098 -0.0734,-0.19132 1.1148,-0.22505 6.5894,-0.18707 l 6.67897,0.0463 4.46836,16.44024 c 2.4576,9.04212 4.51386,16.61922 4.56946,16.83798 l 0.10109,0.39774 h -6.61878 -6.61879 z"
       id="path465"
       transform="scale(0.26458333)" />
    <path
       style="fill:#000000;fill-opacity:0;stroke:#000000;stroke-width:4.76221;stroke-dasharray:none;stroke-dashoffset:0;stroke-opacity:1"
       d="m 427.7945,669.71851 c -2.36074,-8.70183 -4.43383,-16.32013 -4.60688,-16.92954 l -0.31463,-1.10803 4.17983,0.0474 4.17983,0.0474 4.55744,16.78066 c 2.5066,9.22936 4.53829,16.79903 4.51486,16.82148 -0.0234,0.0225 -1.88211,0.0681 -4.1304,0.10152 l -4.08781,0.0607 z"
       id="path466"
       transform="scale(0.26458333)" />
    <path
       style="fill:#000000;fill-opacity:0;stroke:#000000;stroke-width:4.76221;stroke-dasharray:none;stroke-dashoffset:0;stroke-opacity:1"
       d="m 445.54571,685.54002 c -0.0347,-0.0972 -2.01521,-7.37601 -4.40113,-16.17507 -2.38592,-8.79906 -4.4467,-16.37615 -4.57951,-16.83798 l -0.24147,-0.83968 6.65396,0.001 6.65396,10e-4 4.58235,16.88023 c 2.5203,9.28413 4.54841,16.91419 4.50691,16.95568 -0.17136,0.17136 -13.114,0.18582 -13.17507,0.0147 z"
       id="path467"
       transform="scale(0.26458333)" />
    <path
       style="fill:#000000;fill-opacity:0;stroke:#000000;stroke-width:4.76221;stroke-dasharray:none;stroke-dashoffset:0;stroke-opacity:1"
       d="m 463.76919,684.83292 c -0.70141,-2.44365 -8.92275,-32.84858 -8.92275,-32.99895 0,-0.18992 12.26207,-0.14167 12.45239,0.049 0.14239,0.14265 2.23006,5.87774 7.18522,19.73871 2.25001,6.29391 4.27283,11.84122 4.49516,12.32735 0.22233,0.48614 0.45671,1.06124 0.52086,1.278 l 0.11662,0.39411 -7.7969,0.0478 -7.7969,0.0478 z"
       id="path468"
       transform="scale(0.26458333)" />
  </g>
  <g
     id="layer3">
    <ellipse
       style="fill:none;stroke:#000000;stroke-width:1.26;stroke-dasharray:none;stroke-dashoffset:0;stroke-opacity:0"
       id="path11"
       cx="137.58333"
       cy="219.73645"
       rx="28.310417"
       ry="6.2177081" />
    <ellipse
       style="fill:#ffff00;stroke:#000000;stroke-width:1.29556;stroke-dasharray:none;stroke-dashoffset:0;stroke-opacity:1"
       id="path12"
       cx="99.560829"
       cy="139.28593"
       rx="23.51684"
       ry="21.413467" />
    <path
       style="fill:#949494;fill-opacity:1;stroke:#000000;stroke-width:1.26;stroke-dasharray:none;stroke-dashoffset:0;stroke-opacity:1"
       d="m 79.771874,127.26458 c 39.952086,0 39.687496,-0.13229 39.687496,-0.13229"
       id="path13" />
    <path
       style="fill:#000000;fill-opacity:1;stroke:#000000;stroke-width:1.8451;stroke-dasharray:none;stroke-dashoffset:0;stroke-opacity:1"
       d="m 96.33393,128.6712 c -8.566691,11.28374 -29.326537,-4.36055 0,0 z"
       id="path14" />
    <path
       style="fill:#000000;fill-opacity:1;stroke:#000000;stroke-width:1.8451;stroke-dasharray:none;stroke-dashoffset:0;stroke-opacity:1"
       d="m 116.22291,128.33 c -8.56669,11.28374 -29.326536,-4.36055 0,0 z"
       id="path14-8" />
    <path
       style="fill:#ffff00;fill-opacity:1;stroke:#000000;stroke-width:1.89202;stroke-dasharray:none;stroke-dashoffset:0;stroke-opacity:1"
       d="m 91.010451,144.03117 c 0,0 9.175889,8.02733 16.652549,0"
       id="path15" />
    <rect
       style="fill:#000000;fill-opacity:1;stroke:#000000;stroke-width:0.609792;stroke-dasharray:none;stroke-dashoffset:0;stroke-opacity:1"
       id="rect15"
       width="0.31695649"
       height="0.35203564"
       x="118.9907"
       y="127.0472" />
    <rect
       style="fill:#000000;fill-opacity:1;stroke:#000000;stroke-width:1.26;stroke-dasharray:none;stroke-dashoffset:0;stroke-opacity:1"
       id="rect16"
       width="0.35966542"
       height="0.028940836"
       x="97.027672"
       y="127.33486" />
  </g>
</svg>
